<svg xmlns="http://www.w3.org/2000/svg"  viewBox="0 0 128 128" width="64px" height="64px"><path d="M 14 13 C 6.8 13 1 18.8 1 26 L 1 104 C 1 111.2 6.8 117 14 117 L 114 117 C 121.2 117 127 111.2 127 104 L 127 87.599609 C 127 85.899609 125.7 84.599609 124 84.599609 C 122.3 84.599609 121 85.899609 121 87.599609 L 121 104 C 121 107.9 117.9 111 114 111 L 38 111 C 49.4 75.6 78.900391 61.6 123.40039 70.5 C 123.60039 70.5 123.8 70.599609 124 70.599609 C 125.7 70.599609 127 69.299609 127 67.599609 L 127 26 C 127 18.8 121.2 13 114 13 L 14 13 z M 14 19 L 114 19 C 117.9 19 121 22.1 121 26 L 121 63.900391 C 74.9 55.800391 43.400781 72.4 31.800781 111 L 14 111 C 10.1 111 7 107.9 7 104 L 7 26 C 7 22.1 10.1 19 14 19 z M 36 31 C 31.5 31 27.2 32.8 24 36 C 17.4 42.6 17.4 53.399609 24 60.099609 C 27.2 63.299609 31.5 65.099609 36 65.099609 C 40.5 65.099609 44.8 63.299609 48 60.099609 C 54.6 53.499609 54.6 42.7 48 36 C 44.8 32.8 40.5 31 36 31 z M 36 37 C 39 37 41.700781 38.099219 43.800781 40.199219 C 48.100781 44.499219 48.100781 51.500781 43.800781 55.800781 C 41.700781 57.900781 38.9 59 36 59 C 33.1 59 30.299219 57.900781 28.199219 55.800781 C 23.899219 51.500781 23.899219 44.499219 28.199219 40.199219 C 30.299219 38.099219 33 37 36 37 z"/></svg>