<svg xmlns="http://www.w3.org/2000/svg" version="1.1" xmlns:xlink="http://www.w3.org/1999/xlink" xmlns:svgjs="http://svgjs.dev/svgjs" width="1000" height="363" viewBox="0 0 1000 363"><g transform="matrix(1,0,0,1,-0.6060606060606801,-0.2433159751058156)"><svg viewBox="0 0 396 144" data-background-color="#ffffff" preserveAspectRatio="xMidYMid meet" height="363" width="1000" xmlns="http://www.w3.org/2000/svg" xmlns:xlink="http://www.w3.org/1999/xlink"><g id="tight-bounds" transform="matrix(1,0,0,1,0.24000000000003752,0.09652203971140239)"><svg viewBox="0 0 395.5199999999999 143.80695592057722" height="143.80695592057722" width="395.5199999999999"><g><svg viewBox="0 0 672.2727067569231 244.43135999999998" height="143.80695592057722" width="395.5199999999999"><g transform="matrix(1,0,0,1,276.7527067569231,74.13500582201603)"><svg viewBox="0 0 395.52 96.16134835596793" height="96.16134835596793" width="395.52"><g><svg viewBox="0 0 395.52 96.16134835596793" height="96.16134835596793" width="395.52"><g><svg viewBox="0 0 395.52 54.76430769230769" height="54.76430769230769" width="395.52"><g transform="matrix(1,0,0,1,0,0)"><svg width="395.52" viewBox="4.25 -35.70000076293945 259.9800109863281 36" height="54.76430769230769" data-palette-color="#729343"><path d="M16.55 0L4.25 0 4.25-35.5 16.55-35.5Q22.25-35.5 26.08-33.13 29.9-30.75 31.8-26.73 33.7-22.7 33.7-17.8L33.7-17.8Q33.7-12.4 31.6-8.4 29.5-4.4 25.65-2.2 21.8 0 16.55 0L16.55 0ZM29.15-17.8L29.15-17.8Q29.15-21.8 27.68-24.9 26.2-28 23.4-29.75 20.6-31.5 16.55-31.5L16.55-31.5 8.75-31.5 8.75-4 16.55-4Q20.65-4 23.45-5.83 26.25-7.65 27.7-10.78 29.15-13.9 29.15-17.8ZM35.05 0L49.6-35.5 53.4-35.5 67.9 0 63.1 0 58.9-10.4 44-10.4 39.85 0 35.05 0ZM44.9-13.9L57.9-13.9 51.5-30.3 44.9-13.9ZM77.15 0L72.65 0 72.65-35.5 77.15-35.5 77.15 0ZM109.94 0L85.64 0 85.64-35.5 90.14-35.5 90.14-4 109.94-4 109.94 0ZM105.79-35.5L110.74-35.5 121.49-17 132.34-35.5 137.24-35.5 123.74-12.95 123.74 0 119.24 0 119.24-13.05 105.79-35.5ZM137.54-18L137.54-18Q137.54-21.25 138.66-24.38 139.79-27.5 141.96-30.08 144.14-32.65 147.29-34.18 150.44-35.7 154.44-35.7L154.44-35.7Q159.19-35.7 162.59-33.52 165.99-31.35 167.64-27.95L167.64-27.95 164.09-25.65Q163.04-27.9 161.41-29.23 159.79-30.55 157.91-31.1 156.04-31.65 154.24-31.65L154.24-31.65Q151.29-31.65 149.01-30.45 146.74-29.25 145.19-27.25 143.64-25.25 142.86-22.78 142.09-20.3 142.09-17.8L142.09-17.8Q142.09-15.05 143.01-12.5 143.94-9.95 145.59-8 147.24-6.05 149.49-4.9 151.74-3.75 154.39-3.75L154.39-3.75Q156.24-3.75 158.19-4.4 160.14-5.05 161.84-6.43 163.54-7.8 164.54-10L164.54-10 168.29-7.95Q167.19-5.3 164.89-3.45 162.59-1.6 159.76-0.65 156.94 0.3 154.19 0.3L154.19 0.3Q150.54 0.3 147.49-1.28 144.44-2.85 142.21-5.48 139.99-8.1 138.76-11.38 137.54-14.65 137.54-18ZM169.69 0L184.24-35.5 188.03-35.5 202.53 0 197.74 0 193.53-10.4 178.63-10.4 174.49 0 169.69 0ZM179.53-13.9L192.53-13.9 186.13-30.3 179.53-13.9ZM211.78 0L207.28 0 207.28-35.5 222.48-35.5Q224.83-35.5 226.78-34.52 228.73-33.55 230.18-31.93 231.63-30.3 232.43-28.28 233.23-26.25 233.23-24.15L233.23-24.15Q233.23-21.7 232.31-19.5 231.38-17.3 229.71-15.75 228.03-14.2 225.78-13.6L225.78-13.6 234.38 0 229.28 0 221.18-12.75 211.78-12.75 211.78 0ZM211.78-31.5L211.78-16.75 222.53-16.75Q224.38-16.75 225.76-17.78 227.13-18.8 227.91-20.5 228.68-22.2 228.68-24.15L228.68-24.15Q228.68-26.15 227.78-27.83 226.88-29.5 225.43-30.5 223.98-31.5 222.23-31.5L222.23-31.5 211.78-31.5ZM244.63-4L264.23-4 264.23 0 240.13 0 240.13-35.5 263.78-35.5 263.78-31.5 244.63-31.5 244.63-20 261.28-20 261.28-16.25 244.63-16.25 244.63-4Z" opacity="1" transform="matrix(1,0,0,1,0,0)" fill="#729343" class="undefined-text-0" data-fill-palette-color="primary" id="text-0"></path></svg></g></svg></g><g transform="matrix(1,0,0,1,0,67.69284639507691)"><svg viewBox="0 0 232.209792 28.468501960891" height="28.468501960891" width="232.209792"><g transform="matrix(1,0,0,1,0,0)"><svg width="232.209792" viewBox="4.550000190734863 -35.650001525878906 294.0299987792969 36.05000305175781" height="28.468501960891" data-palette-color="#096a2e"><path d="M7.65 0L4.55 0 4.55-35.25 25.8-35.25 25.8-32.6 7.65-32.6 7.65-19.25 24.8-19.25 24.8-16.55 7.65-16.55 7.65 0ZM52.9-11.8L59.2 0 55.8 0 49.85-11.3Q48.65-13.6 47.05-14.45 45.45-15.3 42.65-15.3L42.65-15.3 35.3-15.3 35.3 0 32.2 0 32.2-35.25 46.3-35.25Q51.85-35.25 54.85-32.73 57.85-30.2 57.85-25.35L57.85-25.35Q57.85-21.25 55.47-18.78 53.1-16.3 48.7-15.75L48.7-15.75Q50-15.35 51.02-14.38 52.05-13.4 52.9-11.8L52.9-11.8ZM35.25-17.95L46.1-17.95Q54.8-17.95 54.8-25.4L54.8-25.4Q54.8-29.05 52.65-30.83 50.5-32.6 46.1-32.6L46.1-32.6 35.25-32.6 35.25-17.95ZM88.05 0L66.3 0 66.3-35.25 88.05-35.25 88.05-32.6 69.34-32.6 69.34-19.25 87.05-19.25 87.05-16.55 69.34-16.55 69.34-2.65 88.05-2.65 88.05 0ZM105.69 0.4Q101.54 0.4 98.34-0.73 95.14-1.85 92.64-4.2L92.64-4.2 93.94-6.65Q96.59-4.3 99.27-3.33 101.94-2.35 105.69-2.35L105.69-2.35Q110.14-2.35 112.62-4.17 115.09-6 115.09-9.3L115.09-9.3Q115.09-11.25 113.89-12.48 112.69-13.7 110.84-14.38 108.99-15.05 105.89-15.75L105.89-15.75Q101.79-16.65 99.27-17.6 96.74-18.55 94.99-20.48 93.24-22.4 93.24-25.65L93.24-25.65Q93.24-28.65 94.79-30.9 96.34-33.15 99.17-34.4 101.99-35.65 105.79-35.65L105.79-35.65Q109.39-35.65 112.47-34.48 115.54-33.3 117.79-31.05L117.79-31.05 116.49-28.6Q113.99-30.85 111.44-31.88 108.89-32.9 105.79-32.9L105.79-32.9Q101.34-32.9 98.84-31 96.34-29.1 96.34-25.7L96.34-25.7Q96.34-22.75 98.52-21.33 100.69-19.9 104.89-18.9L104.89-18.9 106.19-18.6Q110.24-17.6 112.59-16.75 114.94-15.9 116.57-14.13 118.19-12.35 118.19-9.35L118.19-9.35Q118.19-6.45 116.64-4.25 115.09-2.05 112.27-0.83 109.44 0.4 105.69 0.4L105.69 0.4ZM150.64-19.25L150.64-35.25 153.69-35.25 153.69 0 150.64 0 150.64-16.55 128.14-16.55 128.14 0 125.09 0 125.09-35.25 128.14-35.25 128.14-19.25 150.64-19.25ZM200.94-19.25L200.94-35.25 203.99-35.25 203.99 0 200.94 0 200.94-16.55 178.44-16.55 178.44 0 175.39 0 175.39-35.25 178.44-35.25 178.44-19.25 200.94-19.25ZM234.83 0L213.08 0 213.08-35.25 234.83-35.25 234.83-32.6 216.13-32.6 216.13-19.25 233.83-19.25 233.83-16.55 216.13-16.55 216.13-2.65 234.83-2.65 234.83 0ZM271.43 0L268.28 0 264.23-9.4 245.23-9.4 241.18 0 238.03 0 253.33-35.25 256.13-35.25 271.43 0ZM254.73-31.6L246.38-12.1 263.08-12.1 254.73-31.6ZM298.58 0L277.28 0 277.28-35.25 280.38-35.25 280.38-2.7 298.58-2.7 298.58 0Z" opacity="1" transform="matrix(1,0,0,1,0,0)" fill="#096a2e" class="undefined-text-1" data-fill-palette-color="secondary" id="text-1"></path></svg></g></svg></g></svg></g></svg></g><g><svg viewBox="0 0 244.43135999999998 244.43135999999998" height="244.43135999999998" width="244.43135999999998"><g><svg viewBox="0 0 244.43135999999998 244.43135999999998" height="244.43135999999998" width="244.43135999999998"><g transform="matrix(1,0,0,1,64.66782805063133,64.6026559364499)"><svg viewBox="0 0 115.09570389873734 115.22604812710016" height="115.22604812710016" width="115.09570389873734"><g><svg xmlns="http://www.w3.org/2000/svg" xmlns:xlink="http://www.w3.org/1999/xlink" version="1.1" x="0" y="0" viewBox="6 6.299999237060547 88.29999542236328 88.39999389648438" enable-background="new 0 0 101 101" xml:space="preserve" height="115.22604812710016" width="115.09570389873734" class="icon-a-0" data-fill-palette-color="accent" id="a-0"><g fill="#096a2e" data-fill-palette-color="accent"><path fill="#096a2e" d="M62 94.7H38.3c-1.9 0-3.5-1.6-3.5-3.5l-0.2-25.3H9.5c-1.9 0-3.5-1.6-3.5-3.5V38.6c0-1.9 1.6-3.5 3.5-3.5h25l0.3-25.3c0-1.9 1.6-3.5 3.5-3.5H62c1.9 0 3.5 1.6 3.5 3.5S64 13.3 62 13.3H41.7l-0.3 25.3c0 1.9-1.6 3.5-3.5 3.5H13v16.8h25.1c1.9 0 3.5 1.6 3.5 3.5l0.2 25.3h16.8l0.2-25.3c0-1.9 1.6-3.5 3.5-3.5h25.1V42.1H62.3c-1.9 0-3.5-1.5-3.5-3.5l-0.2-14.4c0-1.9 1.5-3.5 3.5-3.5 1.9 0 3.5 1.5 3.5 3.5l0.1 11h25.1c1.9 0 3.5 1.6 3.5 3.5v23.8c0 1.9-1.6 3.5-3.5 3.5H65.7l-0.2 25.3C65.5 93.1 64 94.7 62 94.7z" data-fill-palette-color="accent"></path></g></svg></g></svg></g><path d="M32.286 89.833L28.878 98.841 2.897 89.013 6.305 80.005C7.355 77.229 8.812 75.126 10.676 73.697 12.54 72.268 14.631 71.462 16.948 71.278 19.26 71.092 21.61 71.452 24 72.356V72.356C26.639 73.354 28.739 74.732 30.301 76.489 31.867 78.256 32.833 80.282 33.198 82.569 33.558 84.853 33.254 87.275 32.286 89.833ZM22.739 75.689V75.689C20.791 74.952 18.926 74.655 17.143 74.799 15.357 74.948 13.78 75.544 12.412 76.584 11.035 77.628 9.974 79.137 9.227 81.11V81.11L7.066 86.823 27.194 94.437 29.355 88.724C30.111 86.726 30.302 84.874 29.93 83.168 29.556 81.469 28.741 79.976 27.484 78.689 26.225 77.409 24.644 76.409 22.739 75.689ZM40.65 72.251L26.831 45.599 28.754 43.331 57.28 52.642 54.846 55.512 46.518 52.755 38.978 61.646 43.084 69.382ZM37.336 59.338L43.921 51.573 30.891 47.093ZM67.951 44.349L65.136 46.468 48.432 24.274 51.247 22.155ZM96.627 30.818L79.115 38.226 68.293 12.643 71.538 11.271 81.139 33.967 95.406 27.931ZM95.784 3.009L99.628 2.536 109.748 15.871 116.409 0.469 120.213 0 111.88 18.807 113.119 28.862 109.622 29.292 108.373 19.158ZM131.788 14.168V14.168C132.082 12.497 132.66 10.909 133.52 9.406 134.379 7.902 135.486 6.587 136.84 5.461 138.188 4.334 139.74 3.523 141.496 3.029 143.253 2.528 145.161 2.459 147.218 2.822V2.822C149.656 3.252 151.651 4.182 153.203 5.611 154.749 7.032 155.794 8.693 156.337 10.593V10.593L153.283 11.878C152.949 10.63 152.426 9.592 151.714 8.764 150.996 7.934 150.18 7.294 149.266 6.842 148.352 6.39 147.434 6.083 146.51 5.92V5.92C144.996 5.653 143.601 5.725 142.326 6.135 141.045 6.544 139.917 7.193 138.942 8.082 137.963 8.963 137.161 10.004 136.537 11.205 135.919 12.407 135.497 13.65 135.271 14.934V14.934C135.021 16.35 135.016 17.754 135.257 19.148 135.504 20.543 135.962 21.816 136.63 22.968 137.299 24.12 138.161 25.093 139.217 25.887 140.266 26.68 141.472 27.197 142.835 27.438V27.438C143.786 27.605 144.791 27.61 145.853 27.453 146.914 27.296 147.943 26.94 148.94 26.386 149.936 25.832 150.793 25.037 151.509 24.002V24.002L154.12 26.094C153.317 27.351 152.238 28.353 150.883 29.101 149.536 29.843 148.092 30.328 146.552 30.556 145.017 30.792 143.542 30.785 142.127 30.536V30.536C140.253 30.205 138.604 29.495 137.181 28.406 135.757 27.324 134.591 26.007 133.682 24.455 132.78 22.904 132.163 21.231 131.831 19.436 131.499 17.64 131.485 15.884 131.788 14.168ZM158.876 34.582L182.285 15.787 184.888 17.226 181.375 47.026 178.082 45.205 179.146 36.497 168.944 30.855 162.168 36.404ZM170.884 28.791L179.793 33.719 181.621 20.061ZM190.624 55.675L188.192 53.126 208.291 33.952 216.504 42.561C217.349 43.447 217.94 44.432 218.276 45.518 218.608 46.609 218.73 47.72 218.643 48.852 218.55 49.979 218.266 51.06 217.79 52.093 217.313 53.127 216.678 54.023 215.884 54.781V54.781C214.959 55.663 213.915 56.323 212.752 56.761 211.588 57.209 210.412 57.393 209.223 57.313 208.034 57.243 206.922 56.892 205.888 56.261V56.261L202.832 68.473 200.077 65.584 202.924 54.108 197.846 48.785ZM208.463 38.658L200.107 46.629 205.915 52.717C206.581 53.415 207.357 53.838 208.243 53.986 209.124 54.139 210.022 54.054 210.938 53.732 211.864 53.41 212.692 52.901 213.424 52.202V52.202C214.18 51.481 214.713 50.647 215.022 49.699 215.331 48.76 215.412 47.837 215.264 46.93 215.125 46.023 214.739 45.237 214.105 44.573V44.573ZM211.983 79.034L218.732 92.811 215.917 94.19 207.619 77.248 232.564 65.029 240.705 81.647 237.899 83.022 231.309 69.567 223.223 73.528 228.953 85.225 226.318 86.516 220.588 74.819ZM13.163 170.461L9.732 161.407 35.856 151.507 39.287 160.561C40.346 163.354 40.65 165.911 40.198 168.231 39.738 170.548 38.699 172.546 37.08 174.227 35.461 175.908 33.448 177.205 31.04 178.117V178.117C28.396 179.119 25.896 179.48 23.54 179.198 21.189 178.908 19.113 178.022 17.314 176.541 15.523 175.063 14.139 173.037 13.163 170.461ZM29.77 174.766V174.766C31.736 174.021 33.342 173 34.587 171.703 35.838 170.403 36.632 168.903 36.969 167.203 37.307 165.502 37.1 163.66 36.347 161.675V161.675L34.172 155.935 13.928 163.606 16.103 169.347C16.865 171.356 17.954 172.879 19.371 173.915 20.788 174.95 22.4 175.531 24.206 175.658 26.005 175.788 27.86 175.49 29.77 174.766ZM25.033 193.98L53.745 184.63 55.677 186.905 41.767 213.685 39.324 210.809 43.425 202.993 35.833 194.053 27.482 196.863ZM38.392 192.81L45.014 200.609 51.589 188.413ZM55.665 225.017L52.834 222.886 69.633 200.564 72.464 202.694ZM88.673 241.036L71.063 233.578 81.958 207.852 85.221 209.234 75.552 232.065 89.899 238.14ZM99.964 214.968L103.837 215.448 110.436 230.94 120.706 217.538 124.529 218.012 111.808 234.318 110.555 244.431 107.038 243.996 108.301 233.803ZM130.291 231.173V231.173C129.996 229.495 129.995 227.797 130.288 226.076 130.588 224.362 131.185 222.74 132.079 221.212 132.966 219.685 134.153 218.382 135.639 217.304 137.133 216.231 138.913 215.514 140.977 215.151V215.151C143.435 214.72 145.641 214.914 147.595 215.733 149.548 216.545 151.105 217.755 152.265 219.362V219.362L149.826 221.634C149.078 220.563 148.224 219.76 147.266 219.226 146.306 218.685 145.316 218.359 144.297 218.247 143.277 218.136 142.302 218.162 141.372 218.325V218.325C139.851 218.592 138.555 219.137 137.484 219.96 136.42 220.788 135.578 221.787 134.959 222.956 134.341 224.132 133.945 225.394 133.769 226.742 133.587 228.092 133.61 229.415 133.838 230.713V230.713C134.086 232.129 134.565 233.453 135.275 234.687 135.984 235.92 136.854 236.967 137.883 237.826 138.918 238.685 140.069 239.311 141.333 239.704 142.597 240.09 143.914 240.163 145.283 239.922V239.922C146.24 239.755 147.194 239.415 148.145 238.903 149.095 238.392 149.947 237.702 150.7 236.834 151.454 235.972 151.99 234.928 152.309 233.704V233.704L155.487 234.778C155.164 236.246 154.49 237.564 153.465 238.73 152.446 239.895 151.25 240.852 149.874 241.6 148.499 242.348 147.104 242.846 145.688 243.094V243.094C143.8 243.425 141.995 243.32 140.272 242.778 138.556 242.241 137.003 241.396 135.611 240.242 134.226 239.086 133.067 237.719 132.135 236.139 131.209 234.559 130.594 232.904 130.29 231.173ZM168.627 236.386L165.159 206.39 167.772 204.948 191.26 223.895 187.957 225.718 181.11 220.149 170.842 225.816 171.939 234.558ZM170.131 223.061L179.088 218.118 168.439 209.254ZM205.342 211.534L202.894 214.096 182.699 194.792 190.968 186.141C191.818 185.251 192.783 184.612 193.861 184.226 194.935 183.844 196.044 183.671 197.189 183.706 198.329 183.746 199.428 183.982 200.487 184.415 201.542 184.843 202.468 185.439 203.267 186.202V186.202C204.195 187.089 204.91 188.109 205.411 189.26 205.908 190.406 206.146 191.578 206.126 192.773 206.106 193.969 205.804 195.103 205.222 196.175V196.175L217.632 198.677 214.86 201.577 203.201 199.257 198.091 204.603ZM187.42 194.403L195.811 202.424 201.653 196.312C202.324 195.61 202.718 194.813 202.834 193.921 202.941 193.029 202.812 192.128 202.448 191.219 202.084 190.309 201.532 189.5 200.791 188.792V188.792C200.031 188.066 199.17 187.57 198.209 187.304 197.248 187.039 196.315 186.999 195.411 187.184 194.506 187.369 193.737 187.794 193.103 188.457V188.457ZM224.669 180.318L231.469 166.477 234.291 167.864 225.929 184.885 200.854 172.566 209.062 155.858 211.884 157.245 205.238 170.772 213.364 174.764 219.142 163.001 221.794 164.304 216.015 176.067ZM3.991 126.489C3.991 120.595 8.769 115.817 14.663 115.817 20.557 115.817 25.336 120.595 25.336 126.489 25.336 132.383 20.557 137.161 14.663 137.161 8.769 137.161 3.991 132.383 3.991 126.489ZM220.19 126.489C220.19 120.595 224.968 115.817 230.862 115.817 236.756 115.817 241.534 120.595 241.534 126.489 241.534 132.383 236.756 137.161 230.862 137.161 224.968 137.161 220.19 132.383 220.19 126.489Z" fill="#096a2e" data-fill-palette-color="accent"></path></svg></g></svg></g></svg></g><defs></defs></svg><rect width="395.5199999999999" height="143.80695592057722" fill="none" stroke="none" visibility="hidden"></rect></g></svg></g></svg>